<?xml version="1.0" encoding="iso-8859-1"?>
<!-- Generator: Adobe Illustrator 19.0.0, SVG Export Plug-In . SVG Version: 6.00 Build 0)  -->
<svg version="1.1" id="Layer_1" xmlns="http://www.w3.org/2000/svg" xmlns:xlink="http://www.w3.org/1999/xlink" x="0px" y="0px"
	 viewBox="0 0 512 512" style="enable-background:new 0 0 512 512;" xml:space="preserve">
<path style="fill:#F95428;" d="M424.396,265.98v16.485c0,10.966-8.888,19.854-19.842,19.854h-18.903h-51.403H177.751H126.36h-18.903
	c-10.966,0-19.854-8.888-19.854-19.854V265.98h13.326h32.1H378.97h32.1H424.396z"/>
<path style="fill:#E54728;" d="M149.83,282.464V265.98h-16.802h-32.1H87.602v16.485c0,10.966,8.888,19.854,19.854,19.854h18.903
	h43.325C158.718,302.318,149.83,293.43,149.83,282.464z"/>
<path style="fill:#F7B239;" d="M411.07,155.402V265.98h-32.1V159.946C389.69,158.607,400.386,157.092,411.07,155.402z"/>
<path style="fill:#F95428;" d="M378.97,159.946c-81.66,10.215-164.27,10.215-245.941,0c-10.72-1.338-21.416-2.853-32.1-4.544V104.61
	c0-31.936,0-63.872,0-95.808c102.747,16.273,207.407,16.273,310.142,0c0,31.936,0,63.872,0,95.808v50.792
	C400.386,157.092,389.69,158.607,378.97,159.946z"/>
<g>
	<polygon style="fill:#F7B239;" points="385.651,302.318 385.651,302.33 356.31,331.671 281.695,406.274 256.005,431.976 
		184.772,503.197 133.381,503.197 256.005,380.573 304.907,331.671 334.248,302.33 334.248,302.318 	"/>
	<polygon style="fill:#F7B239;" points="378.618,503.197 327.227,503.197 256.005,431.976 281.695,406.274 	"/>
	<polygon style="fill:#F7B239;" points="256.005,380.573 230.304,406.274 126.36,302.33 126.36,302.318 177.751,302.318 
		177.751,302.33 207.092,331.671 	"/>
</g>
<g>
	<polygon style="fill:#E09B2D;" points="177.751,302.33 207.092,331.671 155.701,331.671 126.36,302.33 126.36,302.318 
		177.751,302.318 	"/>
	<polygon style="fill:#E09B2D;" points="385.651,302.318 385.651,302.33 356.31,331.671 304.907,331.671 334.248,302.33 
		334.248,302.318 	"/>
</g>
<path style="fill:#F7B239;" d="M133.029,159.946V265.98h-32.1V155.402C111.613,157.092,122.309,158.607,133.029,159.946z"/>
<g>
	<path style="fill:#E09B2D;" d="M100.928,155.402c10.684,1.691,21.381,3.205,32.1,4.544v22.473
		c-10.72-1.339-21.416-2.853-32.1-4.544C100.928,177.874,100.928,155.402,100.928,155.402z"/>
	<path style="fill:#E09B2D;" d="M411.07,155.402v22.473c-10.684,1.691-21.381,3.205-32.1,4.544v-22.473
		C389.69,158.607,400.386,157.092,411.07,155.402z"/>
</g>
<path style="fill:#FFFFFF;" d="M382.809,139.492c-4.863,0-8.806-3.943-8.806-8.806V72.568c0-4.863,3.943-8.806,8.806-8.806
	c4.863,0,8.806,3.943,8.806,8.806v58.119C391.615,135.55,387.672,139.492,382.809,139.492z"/>
<path style="fill:#333333;" d="M424.402,257.169h-4.52V8.807c0-2.576-1.128-5.023-3.087-6.696s-4.552-2.405-7.096-2.002
	c-101.985,16.153-205.408,16.153-307.393,0c-2.548-0.404-5.138,0.328-7.096,2.002c-1.96,1.673-3.088,4.12-3.088,6.696v248.361h-4.52
	c-4.863,0-8.806,3.943-8.806,8.806v16.493c0,15.801,12.857,28.658,28.658,28.658h15.251l95.149,95.148l-90.696,90.695
	c-2.518,2.518-3.272,6.306-1.909,9.596c1.363,3.291,4.574,5.436,8.135,5.436h51.392c2.335,0,4.576-0.928,6.226-2.58L256,444.421
	l64.998,64.999c1.651,1.652,3.891,2.58,6.226,2.58h51.392c3.562,0,6.772-2.145,8.135-5.436c1.363-3.291,0.609-7.078-1.909-9.596
	l-90.694-90.694l95.148-95.148h15.251c15.802,0,28.658-12.857,28.658-28.658v-16.493
	C433.208,261.111,429.265,257.169,424.402,257.169z M141.838,257.169v-87.301c37.96,4.368,76.061,6.562,114.163,6.562
	c38.102,0,76.203-2.194,114.164-6.562v87.301L141.838,257.169L141.838,257.169z M387.777,257.169v-89.487
	c4.834-0.643,9.665-1.311,14.493-2.025v91.514h-14.493V257.169z M109.733,19.064c97.12,14.364,195.417,14.364,292.537,0V147.85
	c-97.096,14.621-195.44,14.621-292.537,0L109.733,19.064L109.733,19.064z M109.733,165.655c4.828,0.714,9.659,1.383,14.493,2.025
	v89.487h-14.493V165.655z M147.61,311.125h26.487l69.452,69.451l-13.243,13.243L147.61,311.125z M256.002,368.124l-56.998-56.998
	H313L256.002,368.124z M357.36,494.389h-26.487l-62.419-62.419l13.243-13.243L357.36,494.389z M181.13,494.389h-26.487
	l183.264-183.264h26.487L181.13,494.389z M415.596,282.468c0,6.091-4.956,11.046-11.046,11.046H107.453
	c-6.091,0-11.046-4.956-11.046-11.046v-7.687h319.19V282.468z"/>
<circle style="fill:#FFFFFF;" cx="382.809" cy="42.633" r="8.806"/>
<g>
</g>
<g>
</g>
<g>
</g>
<g>
</g>
<g>
</g>
<g>
</g>
<g>
</g>
<g>
</g>
<g>
</g>
<g>
</g>
<g>
</g>
<g>
</g>
<g>
</g>
<g>
</g>
<g>
</g>
</svg>
