<?xml version="1.0" encoding="iso-8859-1"?>
<!-- Generator: Adobe Illustrator 19.0.0, SVG Export Plug-In . SVG Version: 6.00 Build 0)  -->
<svg version="1.1" id="Layer_1" xmlns="http://www.w3.org/2000/svg" xmlns:xlink="http://www.w3.org/1999/xlink" x="0px" y="0px"
	 viewBox="0 0 512 512" style="enable-background:new 0 0 512 512;" xml:space="preserve">
<path style="fill:#40596B;" d="M501.3,210.15c13.9,55.5-23.5,116.3-84.3,118.4c-60.8-2.1-98.1-64-84.3-118.4
	c14.9-57.6,44.8-77.9,84.3-77.9S486.4,152.55,501.3,210.15z"/>
<polygon style="fill:#F8B64C;" points="461.9,314.65 461.9,351.95 454.4,371.15 433.1,427.75 402.1,427.75 379.7,370.15 
	373.3,351.95 373.3,314.65 385.1,311.45 385.1,299.75 450.1,299.75 450.1,311.45 "/>
<path style="fill:#FFD15C;" d="M482.1,242.15c-19.2,70.4-65.1,75.7-65.1,75.7s-45.9-5.3-65.1-75.7c0,0-10.7-8.5-2.1-38.4
	c0,0,5.3-61.9,66.1-61.9s66.1,61.9,66.1,61.9C492.8,233.55,482.1,242.15,482.1,242.15z"/>
<g>
	<path style="fill:#40596B;" d="M420.3,197.35c12.8,8.5,68.3,4.3,68.3,4.3l-2.1-10.7c-4.3-22.4-25.6-40.5-44.8-52.3l0,0H400
		l-17.1,10.7l4.3,10.7C393.6,175.95,405.3,187.75,420.3,197.35z"/>
	<path style="fill:#40596B;" d="M385.1,203.75c-16,12.8-42.7,6.4-42.7,6.4l8.5-23.5l3.2-20.3l33.2-24.7l19.1,6.5v8.5
		C404.3,169.55,395.7,194.15,385.1,203.75z"/>
</g>
<path style="fill:#84DBFF;" d="M476.8,354.15v73.6H359.5v-73.6c1.1,1.1,2.1,2.1,3.2,3.2c5.3,5.3,11.7,9.6,18.1,13.9h1.1
	c3.2,2.1,6.4,3.2,9.6,4.3c17.1,6.4,36.3,6.4,53.3,0c3.2-1.1,6.4-2.1,9.6-4.3h1.1c6.4-3.2,12.8-7.5,18.1-13.9
	C474.7,356.25,475.7,355.15,476.8,354.15z"/>
<g>
	<polygon style="fill:#CDD6E0;" points="512,331.75 512,427.75 432,427.75 454.4,371.15 461.9,350.95 467.2,334.95 474.7,317.85 	
		"/>
	<path style="fill:#CDD6E0;" d="M380.8,371.15l21.3,56.5H269.9v-34.1c0-25.6,16-49.1,40.5-57.6l50.1-18.1l7.5,17.1l5.3,14.9
		L380.8,371.15z"/>
</g>
<g>
	<polygon style="fill:#F2F2F2;" points="487.5,371.15 476.8,387.15 449.1,427.75 428.8,427.75 443.7,375.45 461.9,314.65 
		461.9,314.65 461.9,314.65 461.9,314.65 462.9,314.65 475.7,317.85 484.3,342.35 469.3,353.05 473.6,357.35 476.8,360.55 	"/>
	<polygon style="fill:#F2F2F2;" points="391.5,375.45 406.4,427.75 385.1,427.75 358.4,387.15 347.7,371.15 358.4,360.55 
		361.6,357.35 365.9,353.05 350.9,342.35 359.5,317.85 372.3,314.65 373.3,314.65 373.3,314.65 373.3,314.65 	"/>
</g>
<path style="fill:#FFFFFF;" d="M91.7,426.65l39.5-114.1c-9.6,12.8-24.5,19.2-39.5,19.2s-29.9-6.4-39.5-20.3l0,0L91.7,426.65z"/>
<g>
	<path style="fill:#F8B64C;" d="M52.3,312.55C53.3,312.55,53.3,312.55,52.3,312.55L52.3,312.55z"/>
	<path style="fill:#F8B64C;" d="M131.2,312.55L131.2,312.55L131.2,312.55z"/>
	
		<ellipse transform="matrix(-0.9962 0.0872 -0.0872 -0.9962 99.473 469.3515)" style="fill:#F8B64C;" cx="39.49" cy="236.847" rx="12.8" ry="18.1"/>
	
		<ellipse transform="matrix(-0.9962 -0.0872 0.0872 -0.9962 266.7617 485.2892)" style="fill:#F8B64C;" cx="143.975" cy="236.821" rx="12.8" ry="18.1"/>
</g>
<path style="fill:#FFD15C;" d="M91.7,151.45c-32,0-58.7,26.7-58.7,58.7v17.1c0,4.3,0,8.5,1.1,13.9l0,0c3.2,22.4,12.8,43.7,27.7,60.8
	l5.3,6.4c5.3,5.3,12.8,8.5,20.3,8.5H96c7.5,0,14.9-3.2,20.3-8.5l5.3-6.4c14.9-17.1,25.6-38.4,27.7-60.8c1.1-4.3,1.1-8.5,1.1-13.9
	v-17.1C150.4,177.05,123.7,151.45,91.7,151.45L91.7,151.45z"/>
<polygon style="fill:#FF7058;" points="104.5,390.35 107.7,428.75 75.7,428.75 78.9,390.35 78.9,390.35 81.1,361.55 71.5,344.55 
	91.7,332.75 112,344.55 102.4,361.55 "/>
<g>
	<polygon style="fill:#54C0EB;" points="135.5,353.05 149.3,358.35 115.2,428.75 90.7,428.75 91.7,426.65 104.5,390.35 
		131.2,312.55 147.2,317.85 153.6,344.55 	"/>
	<polygon style="fill:#54C0EB;" points="92.8,428.75 69.3,428.75 34.1,358.35 48,353.05 29.9,344.55 36.3,317.85 51.2,312.55 
		52.3,312.55 78.9,390.35 91.7,426.65 	"/>
</g>
<g>
	<path style="fill:#84DBFF;" d="M235.7,388.25v40.5H115.2l35.2-70.4l-14.9-5.3l18.1-8.5l-6.4-26.7l53.3,19.2
		C221.9,344.55,235.7,364.75,235.7,388.25z"/>
	<polygon style="fill:#84DBFF;" points="68.3,428.75 0,428.75 0,330.65 36.3,317.85 29.9,344.55 49.1,353.05 34.1,358.35 	"/>
</g>
<path style="fill:#40596B;" d="M28.8,226.15l5.3,16c0,0-2.1-50.1,16-51.2c0,0,27.7,11.7,41.6,14.9c0,0,28.8,3.2,43.7-13.9
	c0,0,11.7,6.4,7.5,20.3c0,0,6.4,23.5,6.4,30.9l5.3-14.9c2.1-7.5,12.8-43.7-16-52.3c0,0-2.1-33.1-49.1-37.3c0,0-34.1-2.1-61.9,37.3
	l6.4-3.2C34.1,172.75,21.3,180.25,28.8,226.15z"/>
<polygon style="fill:#F1543F;" points="71.5,344.55 76.8,353.05 91.7,340.25 106.7,353.05 112,344.55 91.7,332.75 "/>
<polygon style="fill:#F2F2F2;" points="131.2,312.55 117.3,353.05 91.7,332.75 66.1,353.05 52.3,312.55 91.7,329.55 "/>
<g>
	<path style="fill:#F8B64C;" d="M121.6,301.85l-5.3,6.4c-5.3,5.3-12.8,8.5-20.3,8.5h-8.5c-7.5,0-14.9-3.2-20.3-8.5l-5.3-6.4
		c-3.2-4.3-6.4-8.5-9.6-12.8v22.4l39.5,17.1l39.5-17.1v-22.4C128,293.35,124.8,297.55,121.6,301.85z"/>
	<rect x="196.3" y="275.15" style="fill:#F8B64C;" width="94.9" height="83.2"/>
</g>
<polygon style="opacity:0.1;fill:#40596B;enable-background:new    ;" points="291.2,275.15 291.2,305.05 257.1,332.75 
	218.7,302.95 240,275.15 "/>
<g>
	
		<ellipse transform="matrix(-0.9962 0.0871 -0.0871 -0.9962 365.3523 404.285)" style="fill:#F8B64C;" cx="173.851" cy="210.118" rx="16" ry="23.5"/>
	
		<ellipse transform="matrix(-0.9962 -0.0871 0.0871 -0.9962 607.69 446.7025)" style="fill:#F8B64C;" cx="313.596" cy="210.086" rx="16" ry="23.5"/>
</g>
<path style="fill:#FFD15C;" d="M318.9,174.95v24.5c0,5.3,0,10.7-1.1,14.9c-1.1,8.5-3.2,17.1-5.3,24.5c-6.4,19.2-16,37.3-29.9,52.3
	l-7.5,8.5c-6.4,7.5-16,10.7-25.6,10.7h-10.7c-9.6,0-19.2-4.3-25.6-10.7l-7.5-7.5c-9.6-10.7-18.1-22.4-23.5-36.3
	c-6.4-12.8-9.6-26.7-11.7-41.6c-1.1-5.3-1.1-10.7-1.1-14.9c0-1.1,0-1.1,0-2.1v-22.4c0-7.5,1.1-13.9,3.2-20.3
	c8.5-30.9,37.3-53.3,71.5-53.3s62.9,22.4,71.5,53.3C317.9,161.05,318.9,168.55,318.9,174.95z"/>
<rect x="174.9" y="349.85" style="fill:#F2F2F2;" width="139.7" height="77.9"/>
<polygon style="fill:#FF7058;" points="227.2,427.75 261.3,427.75 256,374.35 265.6,364.75 244.3,343.45 222.9,364.75 232.5,374.35 
	"/>
<g>
	<path style="fill:#40596B;" d="M416,427.75v-33.1c0-26.7-17.1-51.2-42.7-60.8l-81-28.8l0,0l-10.7,122.7H416z"/>
	<path style="fill:#40596B;" d="M206.9,427.75l-10.6-122.7l-81.1,28.8c-25.6,9.6-42.7,33.1-42.7,60.8v33.1L206.9,427.75
		L206.9,427.75z"/>
</g>
<g>
	<path style="fill:#334A5E;" d="M353.1,427.75v-14.9l-38.4-38.4c-1.1-1.1,0-1.1,0-2.1l37.3-17.1c1.1,0,1.1-1.1,0-2.1l-59.7-50.1
		l-10.7,122.7h71.5L353.1,427.75L353.1,427.75z"/>
	<path style="fill:#334A5E;" d="M135.5,412.75c0,0,0,13.9,0,14.9H207l-10.7-122.6l-59.7,50.1c-1.1,0,0,1.1,0,2.1l37.3,17.1
		c1.1,0,1.1,1.1,0,2.1L135.5,412.75z"/>
</g>
<g>
	<polygon style="fill:#CDD6E0;" points="244.3,343.45 291.2,305.05 283.7,382.95 	"/>
	<polygon style="fill:#CDD6E0;" points="244.3,343.45 196.3,305.05 204.8,383.95 	"/>
</g>
<path style="fill:#334A5E;" d="M168.5,198.35h2.1c1.1-7.5,3.2-16,5.3-22.4c4.3-8.5,6.4-19.2,6.4-28.8c0-3.2,0-6.4-1.1-9.6
	c0,0,1.1,0,2.1,1.1c40.5,10.7,82.1,10.7,122.7,0c1.1,0,2.1-1.1,2.1-1.1c-1.1,3.2-1.1,6.4-1.1,10.7c0,9.6,2.1,18.1,6.4,26.7
	c2.1,6.4,4.3,14.9,5.3,22.4h1.1c0-12.8,1.1-27.7,5.3-41.6c3.2-10.7,3.2-14.9,1.1-25.6c-3.2-13.9-4.3-28.8-25.6-37.3
	c-12.8-5.3-24.5-9.6-55.5-9.6s-42.7,4.3-55.5,9.6c-21.3,8.5-22.4,24.5-25.6,37.3c-3.2,10.7-2.1,14.9,1.1,25.6
	C167.5,170.65,168.5,186.65,168.5,198.35z"/>
<path style="fill:#40596B;" d="M301.9,195.15c-4.3-9.6-13.9-16-24.5-16c-11.7,0-21.3,7.5-25.6,18.1c-5.3-2.1-11.7-2.1-17.1,0
	c-4.3-10.7-13.9-18.1-25.6-18.1c-10.7,0-20.3,6.4-24.5,16c-1.1,3.2-2.1,7.5-2.1,10.7c0,4.3,1.1,8.5,3.2,11.7
	c4.3,9.6,13.9,14.9,24.5,14.9c14.9,0,26.7-11.7,26.7-26.7l0,0c4.3-3.2,9.6-3.2,12.8,0l0,0c0,14.9,11.7,26.7,26.7,26.7
	c10.7,0,20.3-6.4,24.5-14.9c2.1-3.2,3.2-7.5,3.2-11.7C305.1,202.65,304,198.35,301.9,195.15z M211.2,225.05
	c-10.7,0-18.1-8.5-18.1-18.1c0-10.7,8.5-18.1,18.1-18.1s18.1,8.5,18.1,18.1S220.8,225.05,211.2,225.05z M277.3,225.05
	c-10.7,0-18.1-8.5-18.1-18.1c0-10.7,8.5-18.1,18.1-18.1s18.1,8.5,18.1,18.1C296.5,216.55,288,225.05,277.3,225.05z"/>
<g>
</g>
<g>
</g>
<g>
</g>
<g>
</g>
<g>
</g>
<g>
</g>
<g>
</g>
<g>
</g>
<g>
</g>
<g>
</g>
<g>
</g>
<g>
</g>
<g>
</g>
<g>
</g>
<g>
</g>
</svg>
