<?xml version="1.0" encoding="iso-8859-1"?>
<!-- Generator: Adobe Illustrator 16.0.0, SVG Export Plug-In . SVG Version: 6.00 Build 0)  -->
<!DOCTYPE svg PUBLIC "-//W3C//DTD SVG 1.1//EN" "http://www.w3.org/Graphics/SVG/1.1/DTD/svg11.dtd">
<svg version="1.1" id="Layer_1" xmlns="http://www.w3.org/2000/svg" xmlns:xlink="http://www.w3.org/1999/xlink" x="0px" y="0px"
	 width="400px" height="400px" viewBox="0 0 400 400" style="enable-background:new 0 0 400 400;" xml:space="preserve">
<g>
	<path style="fill:#3D82C4;" d="M221.65,358c-11.907,6.875-31.393,6.875-43.301,0L73.994,297.75
		c-11.908-6.875-21.65-23.75-21.65-37.5v-120.5c0-13.75,9.743-30.625,21.65-37.5L178.35,42c11.908-6.875,31.394-6.875,43.301,0
		l104.357,60.25c11.907,6.875,21.65,23.75,21.65,37.5v120.5c0,13.75-9.743,30.625-21.65,37.5L221.65,358z"/>
</g>
<g>
	<g>
		<g>
			<path style="fill:#FFFFFF;" d="M268.703,106.29c6.227-0.544,11.792,4.389,12.367,10.964l12.882,147.239
				c0.575,6.574-4.049,12.399-10.276,12.944c-6.227,0.545-11.792-4.39-12.367-10.964l-4.967-56.764
				c-0.575-6.575-6.426-11.484-13-10.909l-34.617,3.029c-6.574,0.575-11.483,6.426-10.908,13l0.196,2.241
				c0.575,6.574,1.316,15.982,1.647,20.905c0,0,0,0-0.022,3.988c-0.034,8.334-0.992,15.264-2.869,20.789
				c-2.77,8.162-7.734,14.629-14.885,19.412c-0.483,0.322-0.968,0.637-1.464,0.931c-6.858,4.224-14.999,6.752-24.434,7.577
				c-15.022,1.314-26.906-2.002-35.632-9.941c-8.735-7.938-12.431-25.767-12.431-25.767c-1.339-6.462,2.106-12.784,7.657-14.048
				c5.551-1.265,11.283,2.969,12.737,9.406c0,0,2.272,10.059,7.058,14.508c4.775,4.441,11.023,6.323,18.724,5.649
				c5.679-0.497,10.467-2.22,14.372-5.191c3.896-2.972,6.426-6.756,7.588-11.376c0.604-2.391,0.604-2.391,0.604-2.391
				c0.216-3.773-0.077-12.24-0.652-18.814l-5.031-57.511c-0.575-6.575,4.172-12.411,10.55-12.969
				c6.378-0.558,12.019,3.815,12.535,9.719c0.517,5.904,6.319,10.263,12.894,9.688l34.617-3.029c6.574-0.575,11.483-6.425,10.908-13
				l-4.057-46.372C257.852,112.66,262.476,106.835,268.703,106.29z"/>
		</g>
	</g>
</g>
</svg>
